<svg width="464" height="464" viewBox="0 0 464 464" fill="none" xmlns="http://www.w3.org/2000/svg">
<path d="M96.6386 328.521C107.275 343.431 125.788 366.791 145.729 370.062C152.255 371.029 159.537 369.346 165.51 365.085L274.309 287.468C289.655 276.521 299.354 259.926 302.447 241.931C305.543 223.919 301.39 205.037 290.755 189.867C280.004 174.531 263.257 164.706 245.444 161.786C227.225 158.802 208.735 162.861 193.278 173.889C177.932 184.836 168.008 201.4 164.739 219.36C163.024 228.781 163.336 238.526 165.605 247.802C167.425 255.248 170.573 262.335 174.506 268.888C176.547 272.288 178.724 275.628 181.265 278.679C181.912 279.457 188.133 286.607 189.13 285.896L149.821 313.938C145.341 309.454 141.21 304.581 137.497 299.376C100.513 247.535 112.875 175.076 165.055 137.851C217.233 100.627 289.772 112.518 326.756 164.36C363.738 216.199 351.376 288.658 299.196 325.883C287.039 334.556 273.606 340.741 259.276 344.266C245.829 347.571 237.547 361.11 240.776 374.511C244.011 387.905 257.525 396.088 270.972 392.78C291.532 387.724 310.771 378.873 328.154 366.472C402.86 313.178 420.561 209.433 367.612 135.213C314.664 60.9921 210.805 43.9682 136.101 97.2615C61.3893 150.558 43.69 254.301 96.6386 328.521ZM229.034 254.485C222.972 253.358 217.31 249.906 213.55 244.635C209.686 239.219 208.11 232.845 209.167 226.637C210.314 219.914 213.614 214.606 219.222 210.605C224.675 206.715 230.771 205.317 237.457 206.685C243.673 207.701 249.336 211.155 253.095 216.424C256.857 221.696 258.277 228.172 257.215 234.381C256.326 241.149 253.134 246.607 247.681 250.497C242.226 254.389 235.507 255.547 229.034 254.485Z" fill="#EA4335"/>
<path d="M96.6386 328.521C107.275 343.431 125.788 366.791 145.729 370.062C152.255 371.029 159.537 369.346 165.51 365.085L274.31 287.468C289.655 276.521 299.354 259.926 302.447 241.931C305.543 223.919 301.39 205.037 290.755 189.867C280.004 174.531 263.257 164.706 245.444 161.786C227.225 158.802 208.735 162.861 193.278 173.889C177.932 184.836 168.008 201.4 164.739 219.36C163.024 228.781 163.337 238.526 165.605 247.802C167.425 255.248 170.573 262.335 174.506 268.888C176.547 272.288 178.724 275.628 181.265 278.679C181.912 279.457 188.133 286.607 189.13 285.896L149.821 313.938C145.341 309.454 141.21 304.581 137.497 299.376C100.513 247.535 112.875 175.076 165.055 137.851C217.233 100.627 289.772 112.518 326.756 164.36C363.738 216.199 351.376 288.658 299.196 325.883C287.039 334.556 273.606 340.741 259.276 344.266C245.83 347.571 237.547 361.11 240.776 374.511C244.011 387.905 257.525 396.088 270.972 392.78C291.532 387.724 310.771 378.873 328.155 366.472C402.86 313.178 420.561 209.433 367.612 135.213C314.664 60.9921 210.805 43.9682 136.101 97.2614C61.3893 150.558 43.69 254.301 96.6386 328.521ZM229.034 254.485C222.972 253.358 217.31 249.906 213.55 244.635C209.686 239.219 208.11 232.845 209.167 226.637C210.315 219.914 213.614 214.606 219.222 210.605C224.675 206.715 230.771 205.317 237.457 206.685C243.673 207.701 249.336 211.155 253.095 216.424C256.857 221.696 258.277 228.172 257.215 234.381C256.326 241.149 253.134 246.607 247.681 250.497C242.226 254.389 235.507 255.547 229.034 254.485Z" fill="url(#paint0_linear_833_428)"/>
<path d="M97.3308 214.739C89.3372 174.121 99.7334 140.988 108.826 121.618C57.8918 178.245 50.8914 264.405 96.6394 328.532C107.274 343.44 125.786 366.801 145.728 370.075C152.252 371.04 159.533 369.355 165.509 365.092L274.308 287.476C289.655 276.527 299.391 259.937 302.453 241.939C305.525 223.856 301.363 204.948 290.753 189.877C279.975 174.561 263.258 164.714 245.445 161.794C227.228 158.812 208.742 162.87 193.279 173.902C177.936 184.848 168.011 201.406 164.74 219.368C163.024 228.792 163.338 238.542 165.605 247.816C167.425 255.254 170.574 262.346 174.505 268.897C176.549 272.301 178.723 275.637 181.267 278.689C181.914 279.469 188.137 286.616 189.129 285.908L149.822 313.949C145.338 309.46 141.21 304.592 137.497 299.387C127.921 285.964 121.683 271.151 118.557 255.934C109.72 245.702 100.668 231.678 97.3308 214.739ZM228.856 255.541C222.488 254.356 216.533 250.727 212.583 245.189C208.521 239.496 206.867 232.797 207.979 226.277C209.183 219.212 212.655 213.631 218.545 209.429C224.276 205.341 230.681 203.876 237.704 205.306C244.232 206.378 250.188 210.005 254.138 215.541C258.088 221.079 259.58 227.892 258.469 234.413C257.537 241.526 254.179 247.258 248.448 251.346C242.718 255.434 235.658 256.655 228.856 255.541Z" fill="#FBBC05"/>
<path d="M165.136 157.394L217.783 141.371C247.158 151.671 307.969 173.646 316.21 179.139C326.51 186.006 318.499 222.63 316.21 234.075C313.921 245.52 307.054 299.312 305.909 306.179C304.765 313.046 263.563 323.346 236.095 323.346C214.12 323.346 179.633 311.901 165.136 306.179C160.939 295.878 151.631 273.217 147.968 264.977C144.306 256.736 142.627 240.942 142.246 234.075L165.136 157.394Z" fill="white"/>
<path d="M149.82 313.947C145.336 309.458 141.208 304.59 137.495 299.385C127.919 285.962 121.68 271.149 118.555 255.932C109.721 245.701 100.667 231.675 97.3315 214.738C89.3378 174.12 99.734 140.987 108.827 121.617C57.8908 178.245 50.8903 264.405 96.6383 328.532C107.273 343.44 125.785 366.801 145.727 370.075C152.251 371.04 159.532 369.355 165.508 365.092L208.723 334.263C168.996 335.286 149.82 313.947 149.82 313.947Z" fill="#FBBC05"/>
<path d="M330.351 131.435C337.416 150.101 338.796 167.903 337.578 183.206C360.249 232.599 345.265 293.025 299.149 325.923C289.922 332.506 279.953 337.649 269.415 341.292C277.821 345.74 293.341 352.475 313.071 354.375C327.228 355.735 339.782 352.531 349.124 348.739C405.676 292.384 415.119 201.918 367.562 135.255C347.402 106.997 319.853 87.046 289.356 76.0893C305.516 90.2771 321.836 108.975 330.351 131.435Z" fill="#34A853"/>
<path opacity="0.9" d="M330.351 131.435C337.416 150.101 338.796 167.903 337.578 183.206C360.249 232.599 345.265 293.025 299.149 325.923C289.922 332.506 279.953 337.649 269.415 341.292C277.821 345.74 293.341 352.475 313.071 354.375C327.228 355.735 339.782 352.531 349.124 348.739C405.676 292.384 415.119 201.918 367.562 135.255C347.402 106.997 319.853 87.046 289.356 76.0893C305.516 90.2771 321.836 108.975 330.351 131.435Z" fill="url(#paint1_linear_833_428)"/>
<path d="M269.402 341.251C266.06 342.408 262.662 343.417 259.211 344.266C245.762 347.576 237.484 361.116 240.713 374.514C243.942 387.908 257.462 396.092 270.908 392.785C291.47 387.729 310.708 378.88 328.091 366.479C335.697 361.053 342.7 355.093 349.115 348.703C339.763 352.497 327.206 355.701 313.06 354.337C293.327 352.44 277.808 345.704 269.402 341.251Z" fill="#FBBC05"/>
<defs>
<linearGradient id="paint0_linear_833_428" x1="210.948" y1="67.6654" x2="254.973" y2="395.081" gradientUnits="userSpaceOnUse">
<stop stop-color="#231F20" stop-opacity="0"/>
<stop offset="0.3605" stop-color="#1A1718" stop-opacity="0.3605"/>
<stop offset="0.9382" stop-color="#030303" stop-opacity="0.9382"/>
<stop offset="1"/>
</linearGradient>
<linearGradient id="paint1_linear_833_428" x1="284.839" y1="292.135" x2="262.255" y2="338.521" gradientUnits="userSpaceOnUse">
<stop stop-color="#231F20" stop-opacity="0"/>
<stop offset="1" stop-opacity="0.4"/>
</linearGradient>
</defs>
</svg>
